<svg width="134" height="48" viewBox="0 0 134 48" fill="none" xmlns="http://www.w3.org/2000/svg">
<path d="M22.9417 40.5776C23.55 41.1038 23.8976 40.6653 24.2452 40.2268C24.419 40.0514 24.5059 39.876 24.6797 39.7006C25.9832 38.2098 26.9391 36.3682 27.4605 34.4389C27.5474 33.9127 27.895 33.4742 27.4605 32.9481C27.4605 32.9481 27.4605 32.7727 27.5474 32.685C27.9819 32.3342 28.2426 31.7203 28.1557 31.1064C28.3295 29.3525 27.9819 27.6863 27.1998 26.1078C26.3308 24.1785 24.5928 22.7753 22.5072 22.2492C21.6382 22.0738 20.8561 22.0738 19.9002 21.8984C20.943 21.0214 21.812 19.8814 22.3334 18.6536C22.9417 17.3382 23.2893 15.8474 23.3762 14.3565C23.55 12.5149 23.2893 10.5856 22.5941 8.83171C21.9858 7.42858 20.8561 6.37623 19.3788 5.85006C17.467 5.23619 15.3813 5.49927 13.7302 6.63932C13.5564 6.81471 13.2957 6.72702 13.2088 6.55162C13.2088 6.46393 13.1219 6.46393 13.1219 6.37623C13.035 5.49927 13.035 4.53462 12.9481 3.65766C12.8612 2.51762 12.6874 1.37757 11.6446 0.676004C10.8625 0.149829 10.0804 -0.28865 9.12453 0.237525C8.77693 0.500612 8.60313 0.676002 8.69003 1.20218C8.86383 1.90374 8.95073 2.60531 8.86383 3.30688V6.20084C8.95073 6.81471 8.95073 7.51628 8.86383 8.13015C7.99482 8.83171 7.29962 9.35789 6.51752 9.97176C5.99612 10.3225 5.73542 11.0241 5.82232 11.638C5.82232 11.8134 5.64852 12.0765 5.64852 12.2518L5.73542 12.3395H5.64852V12.2518C5.56162 12.4272 5.56161 12.2519 5.56161 12.3395C5.30091 12.6903 5.30092 13.2165 5.47472 13.655C5.47472 13.7427 5.73542 13.9181 5.82232 13.8304C6.25682 13.8304 6.60442 13.4796 6.60442 13.0411C6.51752 11.4626 7.64722 10.5856 8.77693 9.70867C8.86382 9.70867 8.95073 9.70867 9.12453 9.70867C9.21143 10.761 9.29833 11.8134 9.29833 12.8657C9.21143 13.7427 9.38523 14.6196 9.73283 15.4089L10.5149 14.795L10.6887 14.7073C10.8625 14.8827 10.6887 14.8827 10.6018 14.9704C10.6018 14.9704 10.6887 15.0581 10.6887 15.1458C10.9494 15.672 10.8625 15.7597 10.5149 15.9351C10.1673 16.0228 9.99353 16.1105 9.73283 16.1105C9.64593 16.3736 9.64593 16.7243 9.64593 16.9874C9.90663 18.7413 9.73283 20.4953 10.1673 22.2492C10.2542 22.5123 10.2542 22.7753 10.1673 23.0384C9.99353 24.4416 9.90663 25.8447 9.99353 27.2478C9.99353 29.2648 9.90663 31.3695 9.64593 33.3865C9.47213 35.6666 8.95073 37.859 8.08172 39.9637C7.56032 41.4546 6.51752 42.6823 5.30091 43.647C4.86641 43.9977 4.25811 43.9977 3.73671 43.8223C3.47601 43.7346 3.30221 43.5593 3.04151 43.3839L0.955902 42.0684C0.3476 42.5946 0.347601 42.5946 0 43.5593C0.173801 43.7346 0.260701 43.8223 0.434501 43.9977C1.3904 44.6116 2.3463 45.1378 3.38911 45.5763C5.21401 46.3655 7.29962 45.927 8.69003 44.4362C9.73283 43.3839 10.5149 41.9807 10.8625 40.5776C10.8625 40.4899 11.0363 40.2268 11.1232 40.2268C11.3839 40.1391 11.5577 40.3145 11.4708 40.5776C11.4708 40.9284 11.6446 41.1915 11.9053 41.3669C12.3398 41.63 12.8612 41.893 13.3826 41.9807C13.8171 42.0684 14.2516 42.5069 14.6861 42.6823C15.5551 42.9454 16.4241 43.2085 17.2931 43.3839C17.4669 43.3839 17.7277 43.3839 17.9015 43.3839C19.205 43.2085 20.4216 42.9454 21.5513 42.4192C22.5072 41.8053 22.5072 41.7176 22.9417 40.5776ZM26.5046 29.5279C26.8522 29.6156 27.1129 29.8787 27.1129 30.2295L27.026 30.3172C26.6784 30.3172 26.3308 30.0541 26.3308 29.7033C26.3308 29.7033 26.5046 29.6156 26.5046 29.5279ZM9.73283 10.4979L9.64593 10.4102C9.64593 10.4102 9.73283 10.1471 9.81973 10.0595L10.0804 10.3225L9.73283 10.4979ZM10.1673 6.02545C9.90663 6.02545 9.73283 6.02545 9.47213 5.93775C9.90663 5.93775 10.0804 5.85006 10.1673 5.85006C10.2542 5.85006 10.2542 5.85006 10.3411 5.85006C10.428 5.85006 10.1673 6.02545 10.1673 6.02545ZM10.0804 38.2098C9.73283 37.7713 9.55903 37.2452 9.73283 36.6313L10.5149 37.5082L10.0804 38.2098ZM21.6382 19.0044C21.5513 19.0921 21.5513 19.1798 21.4644 19.2675C21.1168 19.4429 20.8561 19.1798 20.6823 19.0044C20.5954 18.829 20.5085 18.6536 20.5954 18.4783C20.5954 18.3906 20.7692 18.2152 20.943 18.2152C21.2906 18.2152 21.6382 18.566 21.6382 19.0044ZM13.3826 8.48093C13.6433 8.13015 13.9909 7.86706 14.4254 7.77936C17.5539 6.81471 19.3788 8.04245 20.1609 11.0241C20.6823 13.0411 20.7692 15.2335 20.2478 17.2505C20.074 18.3029 19.7264 19.3552 19.2919 20.3199C18.8574 21.4599 17.9015 22.3369 16.6849 22.6877C16.0765 22.9507 15.3813 23.2138 14.8599 23.6523C14.3385 23.9154 13.9909 24.2662 13.6433 24.7924C13.6433 24.5293 13.5564 24.2662 13.6433 24.0031C13.6433 23.74 13.6433 23.4769 13.7302 23.2138C13.904 22.6877 13.3826 22.2492 13.5564 21.6353C13.6433 21.0214 13.7302 20.4953 13.7302 19.8814C13.7302 19.3552 13.7302 18.829 13.7302 18.3029C13.8171 17.7767 13.8171 17.2505 13.7302 16.7243C13.4695 15.2335 13.8171 13.655 13.4695 12.1642C13.3826 11.638 13.3826 11.1118 13.4695 10.5856C13.4695 10.2348 13.4695 9.97176 13.4695 9.62097C13.4695 9.27019 13.2088 8.83172 13.3826 8.48093ZM13.1219 18.3906C13.2088 18.4783 13.2957 18.5659 13.2957 18.7413L12.9481 18.829C12.9481 18.7413 12.8612 18.566 12.8612 18.4783C12.8612 18.4783 13.035 18.3906 13.1219 18.3906ZM12.6874 15.3212L12.7743 15.5843L12.6005 15.7597C12.6005 15.672 12.5136 15.5843 12.5136 15.4966C12.5136 15.4089 12.6005 15.4089 12.6874 15.3212ZM12.166 2.69301C12.166 2.69301 12.3398 2.7807 12.3398 2.8684C12.2529 2.95609 12.2529 3.13149 12.166 3.21918L11.9053 3.04379C11.9922 2.8684 12.0791 2.7807 12.166 2.69301ZM11.2101 17.3382L11.297 17.2505V17.4259L11.2101 17.3382ZM11.297 13.3919C11.297 13.0411 11.297 12.6903 11.297 12.3395C11.2101 12.2519 11.3839 12.1642 11.4708 12.1642C11.5577 12.1642 11.6446 12.1642 11.6446 12.2518C11.7315 12.5149 11.8184 12.8657 11.8184 13.2165C11.7315 13.5673 11.9053 13.8304 12.2529 13.9181C12.2529 14.0058 12.2529 14.0935 12.2529 14.1812C12.166 14.2689 12.0791 14.3566 11.9922 14.2689C11.6446 14.0058 11.297 13.7427 11.297 13.3919ZM11.8184 22.6877L11.7315 22.863L11.5577 22.7753L11.8184 22.6877C11.8184 22.6 11.9053 22.6 11.9053 22.6C11.9053 22.6 11.9053 22.6 11.9053 22.5123L11.8184 22.6877ZM19.3788 39.876C18.6836 40.4022 17.9015 40.753 17.0324 40.8407C16.6848 40.8407 16.4241 41.0161 16.2503 41.2792C15.9896 41.63 15.5551 41.63 15.2075 41.3669L15.8158 41.1038C15.8158 41.0161 15.7289 40.9284 15.642 40.9284C14.3385 40.6653 13.1219 40.1391 11.9922 39.4375C11.6446 39.2622 11.4708 38.9114 11.5577 38.4729C11.8184 37.5959 11.9922 36.719 12.2529 35.842C12.6874 34.2635 12.9481 32.685 13.1219 31.1064C13.2088 29.791 13.4695 28.5633 13.4695 27.2478C13.5564 26.7217 13.6433 26.1955 13.7302 25.757C13.9909 25.8447 14.2516 25.9324 14.5992 26.0201C15.0337 26.1078 15.5551 26.0201 15.9027 25.6693C16.1634 25.4062 16.511 25.2308 16.7717 24.9677C17.3801 24.4416 18.0753 24.0031 18.7705 23.6523C19.4657 23.3015 20.3347 23.2138 21.1168 23.4769C21.812 23.6523 22.4203 24.0908 22.681 24.7924C22.9417 25.2308 23.1155 25.757 23.2893 26.2832C23.4631 27.6863 23.8976 29.0894 23.4631 30.5803C23.3762 31.2818 23.2893 31.9834 23.2893 32.685C22.9417 34.1758 22.5072 35.5789 21.812 36.8944C21.2906 38.0344 20.4216 39.0868 19.3788 39.876Z" fill="#672F12"/>
<path d="M133.478 32.7725C132.175 33.3864 131.393 34.7018 130.176 35.3157C129.828 34.8772 129.655 34.351 129.655 33.8249C129.481 32.4217 128.959 31.1063 128.09 30.0539C127.656 29.4401 127.048 28.9139 126.352 28.6508C125.657 28.3877 124.962 27.9493 124.267 28.5631C124.18 28.5631 124.18 28.5631 124.093 28.5631C123.832 28.3 123.572 28.3877 123.224 28.5631C122.963 28.7385 122.79 28.8262 122.529 28.8262C122.007 28.9139 121.573 29.0893 121.312 29.5278C121.052 29.7909 120.878 29.9662 120.617 30.2293C119.922 30.7555 119.574 31.6325 119.661 32.5094C119.314 32.6848 119.053 32.9479 118.618 32.6848C118.966 31.3694 119.14 30.0539 119.14 28.7385C119.14 28.3877 119.314 28.0369 119.487 27.6862C119.922 26.8969 120.443 26.1953 120.965 25.5815C122.529 23.4768 124.006 21.2844 125.397 19.092C126.874 16.8119 128.09 14.3564 129.133 11.8132C129.828 10.0593 130.176 8.21769 130.176 6.28838C130.089 5.06064 130.002 3.9206 128.959 3.13133C128.525 2.07898 127.569 1.90359 126.7 1.55281C126.179 1.28972 125.483 1.46512 125.136 1.90359L124.528 2.60516C124.354 2.42977 124.267 2.16668 124.093 2.16668C123.832 2.16668 123.572 2.25438 123.398 2.34207C123.05 2.69286 122.79 3.13133 122.442 3.56981C122.007 3.8329 121.66 4.27138 121.399 4.79756C120.443 6.46378 119.574 8.21769 118.966 10.0593C118.097 12.6025 117.402 15.1457 116.88 17.7765C116.62 19.0043 116.359 20.232 116.098 21.5475C116.446 21.7228 116.88 21.8982 117.228 22.1613C117.402 22.249 117.315 22.6875 117.054 22.8629C116.88 22.9506 116.793 22.9506 116.62 22.8629C116.359 22.5998 116.185 22.3367 116.011 21.9859C115.838 22.5121 115.751 22.8629 115.664 23.2137C115.577 23.5645 115.751 24.0029 115.577 24.3537C115.316 25.143 115.142 25.9322 115.142 26.7215C114.969 27.16 115.142 27.5985 115.577 27.7739C115.751 27.8616 115.751 28.1246 115.664 28.2123L115.577 28.3C115.055 28.6508 114.708 29.2647 114.708 29.8786C114.621 30.4924 114.534 31.0186 114.36 31.6325C113.926 31.7202 113.578 31.8956 113.144 31.9833C113.057 31.9833 112.796 31.8079 112.796 31.8079C112.796 31.1063 112.362 30.4924 112.796 29.7909C113.057 29.2647 113.057 28.7385 112.883 28.2123C112.709 27.4231 112.448 26.6338 112.014 25.9322C111.058 23.8275 108.972 22.5998 106.8 22.5998C106.279 22.5998 105.757 22.5998 105.236 22.5998C104.714 22.5998 104.193 22.7752 103.672 22.8629C103.498 22.4244 103.324 22.0736 103.063 21.7228C102.889 21.3721 102.542 21.1967 102.194 21.109C100.804 20.7582 99.2396 21.0213 98.1099 21.8982C96.5457 23.0383 95.416 24.7045 94.8946 26.6338C94.8077 26.8092 94.8946 27.0723 94.7208 27.2477C94.2863 28.1246 94.0256 29.0016 93.9387 30.0539C93.9387 30.317 93.8518 30.5801 93.7649 30.8432C93.5042 31.9833 93.4173 33.211 93.4173 34.351C93.5042 35.1403 93.3304 35.8419 92.9828 36.5434C92.6352 37.0696 92.3745 37.6835 92.1138 38.2974C91.94 38.6481 91.6793 38.9112 91.5055 39.262C91.071 39.9636 90.1151 40.2267 89.4199 39.7882C89.1592 39.6128 88.9854 39.3497 88.8116 39.0866C88.5509 38.6481 88.3771 38.122 88.1164 37.5958C87.2474 35.5788 86.6391 33.5618 85.9439 31.5448C85.6832 30.5801 85.2487 29.7909 84.5535 29.0016L85.6832 27.2477V27.16L85.5963 27.0723H85.6832L85.7701 27.16C86.0308 26.8969 86.2915 26.6338 86.5522 26.3707C88.6378 23.6522 90.6365 21.0213 92.6352 18.3027C92.809 18.0396 92.8959 17.7765 92.9828 17.6011L92.1138 17.1627C90.2889 19.5305 88.464 21.8982 86.726 24.266C86.4653 24.6168 86.1177 24.8799 86.2915 25.4061C85.9439 25.7569 85.5963 26.0199 85.2487 26.3707C84.9011 26.7215 84.988 27.0723 84.4666 27.16C84.119 26.6338 83.8583 26.1076 83.5976 25.5815C83.4238 25.143 83.3369 24.7922 83.1631 24.3537C82.9893 23.9152 82.8155 23.5645 82.6417 23.2137C82.4679 22.8629 82.2941 22.4244 82.1203 21.9859C81.9464 21.5475 81.6858 21.109 81.512 20.6705C81.3382 20.232 81.1643 19.7935 80.8167 19.6181C80.3822 19.3551 80.4692 18.9166 80.2084 18.6535C79.4263 17.3381 79.0787 17.2504 77.6014 17.7765L77.2538 17.9519C77.08 18.1273 77.4276 18.3904 76.9931 18.4781C76.8193 18.4781 76.6455 18.4781 76.5586 18.4781C76.2979 18.5658 76.0372 18.7412 76.1241 19.092C76.211 19.2674 76.1241 19.5304 75.9503 19.7058C75.6896 19.9689 75.5158 20.3197 75.4289 20.6705C74.9944 21.7228 74.5599 22.8629 74.2123 24.0029C73.604 25.5815 73.1695 27.16 72.5612 28.6508C71.9529 30.1416 71.6053 31.8956 70.8232 33.2987C70.7363 33.4741 70.7363 33.6495 70.8232 33.7372C70.9101 33.9126 71.2577 34.1757 71.2577 34.351C71.2577 34.7895 70.7363 34.6141 70.4756 34.7895C70.3018 34.8772 70.2149 34.9649 70.128 35.1403C69.9542 35.4911 69.7804 35.8419 69.6066 36.105C68.4769 38.4727 67.3472 40.7528 65.9568 42.9452C65.4354 43.6468 64.914 44.3484 64.2188 44.9622C64.045 45.1376 63.6974 45.1376 63.5236 44.9622C63.4367 44.8745 63.4367 44.8745 63.4367 44.7868C63.176 44.173 62.9153 43.6468 62.5677 42.9452C62.8284 42.2437 62.9153 41.4544 62.7415 40.6651C62.5677 40.0513 62.6546 39.3497 62.8284 38.7358C63.0022 38.2974 63.0022 37.9466 63.0022 37.5081C63.0022 37.3327 62.7415 37.0696 62.7415 36.8942C62.7415 36.7188 63.0891 36.5434 63.176 36.2803C63.3498 35.9296 63.0022 35.6665 62.7415 35.4911C63.4367 35.228 63.6974 34.5264 63.4367 33.8249V33.7372C63.3498 33.5618 63.3498 33.4741 63.4367 33.2987C63.7843 31.8956 64.045 30.4924 64.045 29.0016C64.1319 27.6862 63.9581 26.283 63.6974 24.9676C63.6105 23.9152 63.0891 22.8629 62.307 22.1613C61.9594 21.8105 61.6118 21.5475 61.0035 21.8105C60.9166 21.8982 60.7428 21.8105 60.569 21.7228C59.6131 21.2844 58.9179 21.9859 58.1358 22.249C57.5275 23.126 56.6585 23.7399 56.224 24.7045C55.355 26.6338 54.5729 28.6508 53.7908 30.6678C53.2694 32.0709 52.9218 33.5618 52.3135 34.8772C51.2707 37.3327 50.0541 39.7882 48.7506 42.156C48.4899 42.7698 47.9685 43.2083 47.3601 43.5591C45.9697 43.2083 45.2745 42.0683 44.3186 41.1036C44.5793 40.6651 44.84 40.3144 45.0138 39.9636C45.9697 38.4727 46.7518 36.8942 47.1863 35.1403C47.4471 34.351 47.6208 33.4741 47.7946 32.5971C47.8815 32.2463 47.8816 31.8079 47.8816 31.4571C47.9685 31.1063 48.0554 30.7555 48.0554 30.317C48.0554 29.9663 47.7077 29.6155 47.7946 29.3524C48.0553 28.6508 47.3602 28.4754 47.1863 27.9492C47.534 27.4231 47.534 26.8092 47.1863 26.283C47.0126 25.0553 46.3173 24.1783 45.4483 23.4768C45.1007 23.0383 44.4924 22.7752 43.8841 22.8629C43.7972 22.8629 43.7103 22.8629 43.6234 22.7752C42.6675 21.8982 41.5378 22.0736 40.4081 22.1613C40.1474 22.1613 39.8867 22.3367 39.626 22.3367C39.3653 22.3367 39.0177 22.4244 38.757 22.4244C37.888 20.4951 36.8452 19.9689 34.9334 20.6705C34.412 20.8459 33.8037 21.109 33.3692 21.3721C32.0657 22.3367 31.0229 23.5645 30.4146 25.0553C29.7194 26.5461 29.2849 28.2123 29.0242 29.7909C28.6766 31.6325 28.6766 33.4741 28.9373 35.3157L29.5456 35.5788L28.9373 36.2803C29.198 37.245 29.3718 38.122 29.7194 39.0866C30.5015 40.8405 31.7181 42.4191 33.2823 43.5591C34.4989 44.3484 35.8024 44.8745 37.2797 45.0499C38.5832 44.9622 39.7998 44.5238 40.9295 43.9099C41.7985 43.296 42.6675 42.6821 43.6234 41.9806C43.7972 42.0683 43.8841 42.2437 43.971 42.4191C44.5793 43.3837 45.3614 44.173 46.2304 44.9622C46.7519 45.4884 47.6209 45.6638 48.3161 45.2253C49.0113 44.8745 49.5327 44.3484 49.9672 43.7345C49.9672 43.6468 49.8803 43.5591 49.7934 43.4714C49.7065 43.3837 49.5327 43.296 49.4458 43.1206C49.1851 42.6821 49.1851 42.5068 49.8803 41.9806C50.141 42.156 49.9672 42.7698 50.6624 42.5945C51.3576 41.1036 52.2266 39.6128 52.8349 38.0343C54.2253 34.7018 55.355 31.2817 56.4847 27.8616C56.6585 27.3354 56.9192 26.7215 57.093 26.1953C57.2668 25.9322 57.4406 25.6692 57.7013 25.4061C58.0489 25.143 58.5703 25.143 58.831 25.4938C58.831 25.5815 58.9179 25.5815 58.9179 25.6692C59.4393 26.6338 59.5262 27.7739 59.3524 28.8262C58.9179 31.0186 58.5703 33.1233 57.962 35.3157C57.6144 36.368 57.4406 37.4204 57.5275 38.4727C57.5275 38.5604 57.6144 38.6481 57.5275 38.7358C56.8323 39.4374 57.2668 40.4021 57.093 41.1913C57.093 41.3667 57.1799 41.6298 57.2668 41.7175C57.5275 41.8929 57.5275 41.9806 57.2668 42.156C57.1799 42.2437 57.093 42.4191 57.093 42.5945C57.1799 43.2083 57.2668 43.8222 57.4406 44.5238L58.7441 44.7868L57.7013 45.2253C57.7013 45.313 57.7013 45.4884 57.7013 45.5761C58.0489 46.3654 58.5703 47.0669 59.2655 47.5054C59.8738 48.0316 60.7428 48.1193 61.438 47.8562C62.307 47.6808 63.0022 47.2423 63.6105 46.6285C64.4795 46.2777 65.1747 45.6638 65.6961 44.9622C66.652 43.7345 67.521 42.4191 68.2162 41.0159C68.7376 39.8759 69.3459 38.8235 69.8673 37.6835C70.2149 36.9819 70.5625 36.1927 70.7363 35.4034C70.7363 35.1403 70.9101 34.8772 71.0839 34.7018C71.2577 34.5264 71.3446 34.351 71.4315 34.1756C72.3005 31.9833 73.0826 29.8786 73.8647 27.6862C74.5599 25.8446 75.2551 24.0029 76.0372 22.1613C76.1241 21.8982 76.1241 21.5475 76.0372 21.1967C76.0372 21.109 76.1241 21.0213 76.211 20.9336L77.3407 21.3721C77.2538 22.249 77.2538 22.249 77.3407 22.5121C77.6883 23.126 77.949 23.6522 78.2966 24.1783C78.5573 24.9676 78.9049 25.6692 79.3394 26.3707C79.7739 27.0723 79.7739 28.1246 80.6429 28.5631C80.7299 28.6508 80.7299 28.8262 80.7299 29.0016C80.7299 29.6155 81.1644 30.1416 81.7727 30.317C81.7727 30.317 81.7727 30.4924 81.7727 30.5801L80.8167 30.6678C79.9477 31.7202 79.1656 32.7725 78.3835 33.8249C77.8621 34.4387 77.4276 35.1403 76.9931 35.7542C75.0813 38.2974 73.1695 40.8405 71.2577 43.3837C71.1708 43.4714 71.2577 43.5591 71.1708 43.7345C71.4315 44.0853 71.5184 44.5238 72.0398 44.5238C72.1267 44.5238 72.1267 44.4361 72.2136 44.4361C74.6468 41.0159 77.1669 37.5958 79.6002 34.088C80.1216 33.3864 80.9036 32.7725 80.9905 31.8079C81.1643 31.7202 81.3382 31.6325 81.512 31.7202C81.6858 31.8956 81.8596 32.071 81.9465 32.334C83.0762 34.8772 84.2928 37.4204 85.6832 39.7882C86.2046 40.5774 86.8129 41.3667 87.595 41.9806C88.2033 42.5068 88.9854 42.5945 89.6806 42.2437C90.3758 41.9806 90.9841 41.5421 91.4186 40.9282C91.94 40.139 92.4614 39.4374 92.8959 38.6481C92.9828 38.4727 93.1566 38.2974 93.2435 38.122C93.3304 38.0343 93.3304 37.6835 93.678 37.7712C93.7649 38.122 93.8518 38.4727 93.9387 38.8235C94.1125 39.262 94.2863 39.6128 94.4601 39.9636C95.1553 41.1036 96.0243 42.156 96.9802 43.0329C98.023 43.9976 99.2396 44.6115 100.63 44.8745C101.499 45.0499 102.368 45.0499 103.15 44.7868C105.062 44.173 106.8 43.0329 108.19 41.4544C108.277 41.3667 108.19 41.279 108.277 41.1913L108.017 41.0159L107.582 40.8405L107.234 41.1913C105.496 42.6821 104.975 42.8575 102.716 42.7698C102.368 42.7698 102.107 42.6821 101.76 42.5945C99.9348 41.8929 98.5444 40.4021 97.9361 38.4727C97.6754 37.6835 97.5016 36.8065 97.5016 35.9296C97.4147 34.7895 97.5016 33.5618 97.8492 32.4217C97.8492 32.2463 97.8492 31.9833 97.8492 31.8079V31.7202C97.7623 31.7202 97.7623 31.6325 97.6754 31.5448V31.4571C97.6754 31.4571 97.6754 31.3694 97.7623 31.3694C97.8492 31.4571 97.8492 31.4571 97.8492 31.5448C97.8492 31.6325 97.8492 31.6325 97.8492 31.7202C97.8492 31.7202 97.8492 31.7202 97.9361 31.8079C98.3706 31.3694 98.3706 30.6678 98.7182 30.1416C99.0658 29.5278 99.3265 28.9139 99.6741 28.3C100.196 27.3354 100.196 27.3354 101.325 26.7215C101.586 27.0723 101.934 27.5108 102.194 27.8616C103.585 29.6155 105.41 31.0186 107.495 31.8956C108.017 32.071 108.451 32.2463 108.972 32.4217C109.146 32.4217 109.407 32.334 109.407 32.071C109.581 31.4571 109.32 31.0186 108.625 31.0186C108.103 31.0186 107.93 30.5801 107.495 30.4924C107.061 30.4047 106.626 30.2293 106.192 30.0539C106.105 30.0539 106.018 29.9663 106.018 29.8786C105.757 29.2647 105.236 29.0016 104.801 28.6508C104.019 27.8616 103.411 27.0723 102.889 26.1076C102.716 25.8445 102.803 25.4938 103.063 25.2307C104.454 23.6522 106.8 23.3014 108.625 24.3537C110.189 25.5815 111.319 26.9846 111.319 29.0893V31.194C110.884 31.7202 110.624 32.1587 110.276 32.5094L111.145 33.4741C110.971 33.9126 110.624 34.1757 110.624 34.5264C110.537 35.1403 110.45 35.7542 110.102 36.368C109.928 37.0696 109.668 37.7712 109.407 38.4727C108.972 39.1743 108.538 39.7882 108.017 40.4021C109.059 40.6651 109.059 40.6651 109.407 40.139C109.581 39.9636 109.668 39.7005 109.841 39.4374C110.189 38.7358 110.537 38.0343 110.797 37.3327V37.245C110.71 37.245 110.624 37.245 110.624 37.245C110.537 37.245 110.537 37.1573 110.45 37.0696C110.363 36.9819 110.624 36.9819 110.71 37.0696C110.71 37.0696 110.797 37.1573 110.797 37.245H110.884C111.145 37.1573 111.319 36.9819 111.319 36.7188C111.579 35.8419 111.84 34.8772 112.101 33.8249C111.666 33.7372 111.406 33.3864 111.319 33.0356C111.232 32.6848 111.406 32.334 111.753 32.4217C112.362 32.5971 112.883 32.6848 113.491 32.6848C114.1 32.6848 114.36 33.0356 114.534 33.4741C114.273 33.6495 113.839 33.7372 113.839 34.1756C113.839 34.7018 113.752 35.0526 114.013 35.4034C114.1 35.4911 114.273 35.5788 114.447 35.5788C114.621 35.5788 114.708 35.4911 114.882 35.4911C115.055 35.8419 114.969 36.2804 114.621 36.5434C114.447 36.6311 114.1 36.2803 114.013 36.7188C113.926 36.9819 113.839 37.245 113.839 37.5081C114.013 38.2097 113.752 38.9112 114.1 39.5251C114.186 39.7882 114.447 39.9636 114.708 39.9636C114.882 39.9636 115.055 40.0513 115.316 40.0513L114.36 41.4544L115.055 42.7698C115.49 42.7698 115.924 42.8575 116.359 42.8575C117.402 42.9452 118.271 42.156 118.271 41.1036C118.271 40.4897 118.705 39.8759 118.358 39.262C118.618 38.3851 118.705 37.5081 118.705 36.5434C118.705 36.368 118.705 36.1927 118.792 36.105L120.009 32.9479C120.356 32.071 120.965 31.2817 121.66 30.5801C122.529 29.6155 124.006 29.6155 124.962 30.4924C125.049 30.5801 125.136 30.7555 125.31 30.8432C125.831 31.5448 126.266 32.4217 126.439 33.2987C126.787 34.7018 126.874 36.1927 126.7 37.5958C126.352 37.8589 126.092 38.0343 125.744 38.2097C125.483 38.3851 125.31 38.6481 125.136 38.9112L125.223 38.9989H125.049C123.224 40.0513 121.834 41.8052 121.138 43.8222C120.878 44.6115 120.878 45.4884 121.312 46.19C121.399 46.3654 121.573 46.5408 121.747 46.6285C122.442 46.9792 123.137 47.0669 123.919 46.8915C125.136 46.5408 126.179 45.8392 126.961 44.8745C128.09 43.5591 128.959 41.9806 129.394 40.2267C129.568 39.4374 129.828 38.6481 130.002 37.8589C130.089 37.245 130.437 36.7188 130.871 36.368C131.045 36.1927 131.306 36.0173 131.48 35.8419L134 33.5618L133.478 32.7725ZM119.314 26.0199C119.227 25.9322 119.227 25.7569 119.14 25.6692C119.14 25.5815 119.227 25.4938 119.314 25.4061L119.487 25.6692L119.314 26.0199ZM122.268 3.30673C122.876 3.21903 123.398 3.39442 123.745 3.8329C122.876 4.09599 122.79 4.09599 122.268 3.30673ZM119.835 22.9506C119.922 22.5121 120.009 22.3367 120.096 21.9859C120.269 21.4598 120.356 20.9336 120.356 20.4074C120.269 19.7935 120.269 19.2674 120.096 18.7412C120.096 18.4781 120.096 18.215 120.096 17.9519L120.617 18.5658C120.791 18.3904 120.878 18.215 120.965 18.0396C121.399 16.1103 121.834 14.0933 122.355 12.0763C122.876 10.147 123.572 8.39308 124.093 6.55147C124.267 6.0253 124.788 5.67451 124.354 5.06064C124.962 4.88525 124.528 4.09599 125.223 3.9206C125.57 3.74521 125.918 3.48212 126.266 3.21903C126.613 2.95594 127.135 3.04364 127.395 3.39442C128.264 4.27138 128.699 5.49912 128.525 6.81456C128.351 8.21769 128.09 9.70852 127.482 11.024C126.526 13.3917 125.397 15.7595 124.006 17.9519C123.137 19.5304 122.181 20.9336 121.225 22.4244C120.791 23.126 120.269 23.8275 119.661 24.4414C119.748 23.7398 119.748 23.3014 119.835 22.9506ZM119.661 21.3721C119.661 21.5475 119.574 21.6352 119.4 21.6352C119.314 21.6352 119.314 21.6352 119.227 21.5475C119.14 21.4598 119.14 21.3721 119.14 21.2844C119.227 21.1967 119.314 21.109 119.487 21.0213C119.574 21.1967 119.661 21.2844 119.661 21.3721ZM119.227 16.6365C119.4 16.7242 119.4 16.8119 119.314 16.8119C119.227 16.8996 119.14 16.9873 119.053 17.075C118.966 16.9873 118.879 16.8996 118.792 16.8996C118.792 16.8996 119.053 16.5488 119.227 16.6365ZM63.4367 28.6508V28.7385L63.3498 28.6508H63.4367ZM37.019 23.5645C37.1059 23.6522 37.1059 23.6522 37.1059 23.7399L37.019 23.8275C37.019 23.7399 37.019 23.6522 37.019 23.5645ZM36.0631 25.4061C36.15 25.4938 36.2369 25.4938 36.2369 25.5815C36.2369 25.5815 36.15 25.7569 36.0631 25.8445C35.9762 25.9322 35.9762 25.7569 35.9762 25.7569C35.9762 25.5815 35.9762 25.4938 36.0631 25.4061ZM35.4548 21.5475C35.4548 21.5475 35.4548 21.6352 35.4548 21.5475C35.3679 21.6352 35.3679 21.6352 35.3679 21.6352L35.281 21.7228H35.3679L35.4548 21.5475ZM35.281 21.8105C35.281 21.8105 35.281 21.7228 35.281 21.8105C35.3679 22.0736 35.4548 22.3367 35.6286 22.5998C35.7155 22.8629 36.0631 23.0383 35.7155 23.3014C35.6286 23.3891 35.3679 23.2137 35.1941 23.126C34.4989 22.5998 34.4989 22.4244 35.281 21.8105ZM31.8919 30.9309V31.0186V30.9309ZM29.7194 34.8772C29.5456 34.7895 29.3718 34.7018 29.2849 34.5264C29.5456 34.2633 29.8063 34.4387 29.8932 34.6141C29.8932 34.7018 29.9801 34.7895 29.9801 34.8772C29.8932 34.8772 29.7194 34.9649 29.7194 34.8772ZM29.8932 32.5094C29.6325 32.7725 29.4587 32.6848 29.3718 32.5094C29.3718 32.334 29.3718 32.2463 29.3718 32.071C29.3718 32.071 29.4587 31.9833 29.4587 31.8956C29.4587 31.8079 29.5456 31.6325 29.6325 31.5448C30.1539 32.1586 30.1539 32.2463 29.8932 32.5094ZM31.1967 33.2987C30.936 33.4741 30.6753 33.4741 30.1539 33.211L30.8491 32.6848C31.1098 32.5094 31.3705 32.5971 31.3705 32.7725C31.3705 32.9479 31.3705 33.1233 31.1967 33.2987ZM32.2395 34.6141C32.0657 34.7895 31.8919 34.7895 31.7181 34.6141C31.6312 34.6141 31.6312 34.6141 31.5443 34.5264L31.6312 34.4387C31.805 34.4387 31.9788 34.4387 32.1526 34.5264V34.6141H32.2395ZM32.0657 31.9833C31.9788 31.8956 31.8919 31.8079 31.805 31.7202C31.7181 31.6325 31.8919 31.6325 31.8919 31.5448L32.2395 31.8079L32.0657 31.9833ZM32.5871 33.4741C32.5002 33.211 32.4133 33.0356 32.4133 32.9479C32.4133 32.8602 32.674 32.7725 32.8478 32.7725C33.0216 32.7725 33.0216 32.9479 33.0216 32.9479C32.8478 33.1233 32.7609 33.2987 32.5871 33.4741ZM42.8413 41.1036C41.5378 42.6821 39.3653 43.2083 37.4535 42.4191C37.019 42.2437 36.5845 41.9806 36.2369 41.7175C34.4989 40.5774 33.4561 38.7358 33.2823 36.6311C33.2823 36.1927 33.1085 35.7542 33.1085 35.3157C33.1085 35.0526 33.1085 34.7895 33.1085 34.5264C33.1954 33.9126 33.2823 33.3864 33.4561 32.7725C33.9775 30.1416 35.1941 27.6862 37.1059 25.8445C37.5404 25.4061 38.0618 25.143 38.1487 24.5291C38.1487 24.3537 38.3225 24.3537 38.4963 24.4414C38.6701 24.5291 38.9308 24.5291 39.1046 24.3537C39.5391 24.0029 39.8867 23.5645 40.3212 23.2137C40.495 23.3891 40.6688 23.4768 40.9295 23.5645C41.364 23.6522 41.8854 23.6522 42.3199 23.6522C43.2758 23.6522 44.1448 24.0029 44.7531 24.6168C45.8828 25.6692 46.578 26.9846 46.7518 28.5631C46.9256 29.4401 46.8388 30.4047 46.6649 31.2817C46.4042 32.7725 46.1435 34.2633 45.709 35.6665C45.2745 37.6835 44.3186 39.6128 42.8413 41.1036ZM61.7856 23.5645C61.7856 23.6522 61.7856 23.7399 61.7856 23.8275C61.6987 23.7399 61.6987 23.7398 61.6118 23.6522C61.6118 23.5645 61.6118 23.4768 61.6118 23.4768C61.6118 23.4768 61.5249 23.4768 61.5249 23.3891H61.6118V23.4768C61.6987 23.4768 61.7856 23.4768 61.7856 23.5645ZM61.5249 23.2137L61.6118 23.3014L61.5249 23.2137ZM60.8297 31.8956V31.9833V31.8956ZM60.0476 32.9479C60.1345 32.9479 60.1345 32.9479 60.0476 32.9479C60.1345 32.7725 60.2214 32.7725 60.3083 32.7725C60.569 32.8602 60.6559 33.1233 60.569 33.3864C60.569 33.4741 60.3952 33.4741 60.3952 33.5618C60.1345 33.5618 60.0476 33.2987 60.0476 32.9479ZM60.4821 36.2803C60.4821 36.368 60.4821 36.4557 60.4821 36.5434C60.3952 36.6311 60.3083 36.6311 60.2214 36.6311C59.9607 36.5434 59.7869 36.368 59.4393 36.105C59.7869 35.9296 60.2214 36.0173 60.4821 36.2803ZM58.7441 34.5264C58.831 34.5264 58.9179 34.7018 59.0048 34.7895C58.9179 34.8772 58.7441 34.9649 58.6572 34.9649C58.5703 34.9649 58.4834 34.8772 58.3096 34.7018C58.4834 34.6141 58.6572 34.4387 58.7441 34.5264ZM58.5703 44.2607C58.4834 44.3484 58.3965 44.3484 58.3096 44.3484C58.0489 44.173 57.962 43.9099 58.1358 43.6468L58.2227 43.5591C58.3096 43.6468 58.3965 43.6468 58.4834 43.7345C58.6572 43.9099 58.831 44.0853 58.5703 44.2607ZM58.7441 40.9282C58.7441 40.8405 58.7441 40.7528 58.831 40.6651C58.9179 40.7528 59.0048 40.7528 59.0048 40.8405C59.0048 40.9282 58.9179 41.0159 58.831 41.0159C58.831 41.1036 58.7441 40.9282 58.7441 40.9282ZM58.9179 41.6298L59.0917 41.5421C59.1786 41.6298 59.2655 41.7175 59.2655 41.8929L59.1786 41.9806L58.9179 41.6298ZM59.2655 42.5945C59.1786 42.5945 59.3524 42.5068 59.3524 42.5068C59.3524 42.5068 59.6131 42.5068 60.0476 42.5945C59.8738 42.6821 59.6131 42.6821 59.4393 42.7698C59.3524 42.7698 59.3524 42.6821 59.2655 42.5945ZM59.7869 46.5408L59.4393 46.2777C59.5262 46.19 59.6131 46.1023 59.6131 46.1023C59.7 46.19 59.8738 46.19 59.9607 46.2777C59.9607 46.2777 59.8738 46.4531 59.7869 46.5408ZM60.569 46.2777L60.3952 46.19L60.4821 46.1023H60.569V46.2777ZM60.6559 43.8222L60.569 44.8745L60.0476 43.9976L60.6559 43.8222L60.7428 43.7345L60.6559 43.8222ZM60.8297 38.8235C60.7428 38.7358 60.7428 38.6481 60.6559 38.5604C60.6559 38.385 60.8297 38.2097 61.0035 38.2097C61.0035 38.2097 61.0035 38.2097 61.0904 38.2097L61.2642 38.3851L60.8297 38.8235ZM61.3511 37.245C61.2642 37.245 61.1773 37.1573 61.0904 37.1573L61.2642 36.9819L61.5249 37.0696C61.438 37.1573 61.3511 37.245 61.3511 37.245ZM61.2642 36.0173C61.1773 36.0173 61.0904 35.8419 61.0904 35.7542C61.2642 35.7542 61.3511 35.6665 61.5249 35.6665C61.6118 35.6665 61.6118 35.8419 61.6987 35.9296C61.5249 36.0173 61.3511 36.0173 61.2642 36.0173ZM62.2201 34.2634C61.8725 34.7018 61.6987 34.5264 61.3511 34.2634C61.5249 34.0003 61.6118 33.6495 61.7856 33.3864C61.7856 33.2987 61.9594 33.2987 62.0463 33.2987C62.2201 33.5618 62.5677 33.8249 62.2201 34.2634ZM70.3018 35.9296C70.3018 35.9296 70.2149 35.9296 70.128 35.9296V35.8419H70.2149C70.3018 35.8419 70.4756 35.9296 70.3018 35.9296ZM78.0359 19.8812C77.949 19.9689 77.7752 19.9689 77.6014 19.9689C77.5145 19.9689 77.4276 19.7935 77.4276 19.7058C77.4276 19.5304 77.5145 19.4428 77.6883 19.3551C77.8621 19.2674 77.949 19.1797 78.1228 19.1797C78.3835 19.5304 78.2966 19.7058 78.0359 19.8812ZM78.7311 19.0043L78.6442 18.9166L78.7311 18.8289L78.818 18.9166C78.818 19.0043 78.818 19.0043 78.7311 19.0043ZM82.2072 29.177C82.2941 29.0893 82.381 29.0016 82.4679 29.0016C82.5548 29.0016 82.6417 29.177 82.7285 29.2647L82.294 29.5278C82.381 29.3524 82.2072 29.2647 82.2072 29.177ZM82.9024 31.0186C82.9024 31.1063 82.9024 31.0186 82.9024 31.0186L82.8155 31.1063L82.7285 31.194V31.3694V31.4571C82.7285 31.4571 82.6417 31.3694 82.6417 31.2817L82.7285 31.194V31.0186H82.8155V30.9309C82.8155 31.1063 82.8155 31.1063 82.9024 31.0186L82.9893 30.9309C82.9893 30.9309 82.9893 31.0186 82.9024 31.0186ZM83.5976 31.6325C83.5976 31.5448 83.5107 31.4571 83.5107 31.3694L83.5976 31.2817C83.5976 31.3694 83.6845 31.4571 83.6845 31.5448L83.5976 31.6325ZM87.595 40.8405C87.5081 40.7528 87.4212 40.6651 87.3343 40.5774C87.3343 40.5774 87.3343 40.5774 87.2474 40.5774L87.0736 40.4897L87.2474 40.3144L87.3343 40.4897C87.5081 40.4897 87.595 40.4897 87.7688 40.5774L87.8557 40.6651C87.8557 40.7528 87.595 40.8405 87.595 40.8405ZM88.8116 42.0683C88.7247 42.156 88.3771 41.8929 88.464 41.7175C88.5509 41.6298 88.6378 41.5421 88.8116 41.4544C88.8985 41.4544 88.9854 41.5421 89.1592 41.7175C88.9854 41.8052 88.8985 41.9806 88.8116 42.0683ZM94.9815 28.4754C95.2422 28.2123 95.5029 27.9493 95.6767 27.7739C95.7636 27.7739 95.7636 27.8616 95.8505 27.8616C96.0243 28.3 95.7636 28.4754 94.9815 28.4754ZM96.0243 32.071C95.8505 32.1587 95.9374 32.071 95.8505 32.071C95.7636 32.071 95.8505 31.8956 95.8505 31.8956C95.9374 31.8956 95.9374 31.8079 96.0243 31.8956C96.0243 31.9833 96.1981 31.9833 96.0243 32.071ZM97.8492 28.9139C97.7623 28.9139 97.5885 28.8262 97.5016 28.7385C97.4147 28.5631 97.4147 28.3877 97.5885 28.3C97.5885 28.3 97.6754 28.3 97.6754 28.2123C97.8492 28.2123 98.023 28.2123 98.2837 28.3C98.2837 28.3 98.2837 28.3877 98.3706 28.4754C98.1968 28.6508 98.023 28.8262 97.8492 28.9139ZM98.7182 24.1783C98.6313 24.1783 98.5444 24.1783 98.4575 24.1783C98.2837 24.1783 98.2837 24.0906 98.4575 24.0029C98.5444 24.0906 98.6313 24.0906 98.7182 24.1783ZM100.282 23.8275L100.196 23.7399C100.196 23.6522 100.196 23.5645 100.282 23.4768H100.369L100.282 23.8275ZM101.934 26.283C101.76 26.1076 101.673 25.9322 101.586 25.6692C101.586 25.5815 101.76 25.4938 101.934 25.4061C102.02 25.4938 102.02 25.5815 102.02 25.6692C102.02 25.8445 102.02 26.1076 101.934 26.283ZM117.749 25.0553C117.836 25.0553 117.923 25.143 118.01 25.143C117.923 25.143 117.923 25.2307 117.836 25.2307C117.749 25.2307 117.749 25.143 117.662 25.0553C117.576 24.9676 117.749 25.0553 117.749 25.0553ZM117.489 29.177L117.662 30.0539C117.054 30.1416 116.88 30.0539 116.88 29.6155C116.793 29.2647 116.88 29.2647 117.489 29.177ZM117.749 28.8262H117.836L117.923 28.7385C117.923 28.7385 117.923 28.8262 117.836 28.8262H117.749L117.489 29.2647L117.749 28.8262ZM117.576 33.6495C117.489 33.6495 117.402 33.5618 117.315 33.5618C117.402 33.5618 117.489 33.4741 117.576 33.4741C117.662 33.4741 117.662 33.5618 117.662 33.5618C117.749 33.5618 117.662 33.6495 117.576 33.6495ZM116.707 28.6508V28.7385V28.6508ZM116.098 23.4768L116.011 23.5645V23.4768H116.098ZM116.011 31.5448L116.185 31.4571C116.272 31.5448 116.446 31.6325 116.446 31.7202C116.446 31.8956 116.446 31.9833 116.359 32.1586C116.185 32.071 116.011 31.9833 115.924 31.8956C115.838 31.8079 115.838 31.6325 115.924 31.5448C115.924 31.5448 115.924 31.5448 116.011 31.5448ZM115.751 30.2293L115.838 30.317L115.751 30.2293ZM116.185 34.351L116.272 34.2634L116.185 34.351V35.228L115.403 34.8772C115.403 34.2633 115.838 34.351 116.185 34.351ZM115.055 31.1063L114.969 31.0186C114.969 31.0186 115.142 30.9309 115.229 30.9309C115.316 30.9309 115.316 31.0186 115.316 31.0186C115.229 31.0186 115.142 31.0186 115.055 31.1063ZM115.751 38.5604C115.577 38.5604 115.403 38.5604 115.229 38.5604C115.055 38.5604 115.142 38.4727 115.055 38.3851C114.969 38.2974 115.142 38.2974 115.142 38.2974C115.316 38.2974 115.49 38.3851 115.751 38.3851V38.5604ZM116.88 38.8235C116.88 38.8235 116.967 38.6481 117.054 38.6481C117.141 38.5604 117.141 38.6481 117.228 38.6481C117.315 38.6481 117.315 38.7358 117.315 38.7358C117.576 39.0866 117.489 39.4374 117.576 39.7882C117.141 39.5251 117.054 39.1743 116.88 38.8235ZM118.01 36.7188C117.576 36.8065 117.489 36.368 117.141 36.2803C117.054 36.5434 116.88 36.8065 116.793 37.0696C116.707 37.1573 116.62 37.1573 116.533 37.1573C116.446 37.1573 116.359 37.0696 116.359 36.9819C116.272 36.7188 116.272 36.5434 116.272 36.2803H116.185L116.098 36.1927L116.185 36.2803H116.272H117.141C117.228 36.105 117.402 35.9296 117.662 36.0173H117.749C118.097 36.105 118.01 36.4557 118.01 36.7188ZM117.923 27.4231C117.662 27.3354 117.489 27.2477 117.228 27.16C117.228 27.16 117.228 26.9846 117.228 26.8969C117.228 26.8092 117.315 26.8092 117.315 26.8092C117.576 26.8969 117.749 27.0723 118.01 27.16C118.01 27.16 118.01 27.2477 118.01 27.3354C118.097 27.2477 118.01 27.4231 117.923 27.4231ZM118.531 33.3864C118.531 33.3864 118.358 33.2987 118.271 33.2987C118.358 33.2987 118.445 33.211 118.531 33.211L118.618 33.2987L118.531 33.3864ZM126.787 39.1743V39.262C126.787 39.262 126.787 39.262 126.7 39.262C126.7 39.5251 126.7 39.8759 126.7 40.139C126.005 41.9806 124.875 43.5591 123.311 44.6991C123.137 44.7868 122.963 44.9622 122.79 45.0499C122.529 45.1376 122.268 44.8745 122.268 44.6115C122.268 44.4361 122.355 44.3484 122.442 44.173C122.442 44.0853 122.355 43.8222 122.094 43.5591C122.529 43.5591 122.963 43.3837 122.876 42.9452C122.79 42.2437 123.05 41.5421 123.572 41.1036C123.919 40.9282 124.267 41.279 124.614 40.9282C125.223 40.3144 126.005 39.7882 126.7 39.262C126.7 39.262 126.7 39.262 126.7 39.1743H126.787C126.787 39.0866 126.787 39.0866 126.874 38.9989C126.874 38.9112 126.874 38.9112 126.874 38.8235C126.874 38.9112 126.961 38.9989 126.961 38.9989C126.874 39.0866 126.874 39.0866 126.787 39.1743Z" fill="#672F12"/>
</svg>
