<svg width="133" height="48" viewBox="0 0 133 48" fill="none" xmlns="http://www.w3.org/2000/svg">
<path d="M22.7705 40.5776C23.3742 41.1038 23.7192 40.6653 24.0642 40.2268C24.2367 40.0514 24.323 39.876 24.4955 39.7006C25.7893 38.2098 26.738 36.3682 27.2556 34.4389C27.3418 33.9127 27.6868 33.4742 27.2556 32.9481C27.2556 32.9481 27.2556 32.7727 27.3418 32.685C27.7731 32.3342 28.0318 31.7203 27.9456 31.1064C28.1181 29.3525 27.7731 27.6863 26.9968 26.1078C26.1343 24.1785 24.4092 22.7753 22.3392 22.2492C21.4767 22.0738 20.7004 22.0738 19.7516 21.8984C20.7867 21.0214 21.6492 19.8814 22.1667 18.6536C22.7705 17.3382 23.1155 15.8474 23.2017 14.3565C23.3742 12.5149 23.1155 10.5856 22.4255 8.83171C21.8217 7.42858 20.7004 6.37623 19.2341 5.85006C17.3366 5.23619 15.2666 5.49927 13.6278 6.63932C13.4553 6.81471 13.1965 6.72702 13.1103 6.55162C13.1103 6.46393 13.024 6.46393 13.024 6.37623C12.9378 5.49927 12.9378 4.53462 12.8515 3.65766C12.7653 2.51762 12.5928 1.37757 11.5577 0.676004C10.7815 0.149829 10.0052 -0.28865 9.05643 0.237525C8.71143 0.500612 8.53892 0.676002 8.62518 1.20218C8.79768 1.90374 8.88393 2.60531 8.79768 3.30688V6.20084C8.88393 6.81471 8.88393 7.51628 8.79768 8.13015C7.93516 8.83171 7.24515 9.35789 6.46888 9.97176C5.95137 10.3225 5.69262 11.0241 5.77887 11.638C5.77887 11.8134 5.60636 12.0765 5.60636 12.2518L5.69261 12.3395H5.60636V12.2518C5.52011 12.4272 5.52011 12.2519 5.52011 12.3395C5.26135 12.6903 5.26136 13.2165 5.43386 13.655C5.43386 13.7427 5.69262 13.9181 5.77887 13.8304C6.21013 13.8304 6.55513 13.4796 6.55513 13.0411C6.46888 11.4626 7.59015 10.5856 8.71143 9.70867C8.79768 9.70867 8.88393 9.70867 9.05643 9.70867C9.14269 10.761 9.22894 11.8134 9.22894 12.8657C9.14269 13.7427 9.31519 14.6196 9.6602 15.4089L10.4365 14.795L10.609 14.7073C10.7815 14.8827 10.609 14.8827 10.5227 14.9704C10.5227 14.9704 10.609 15.0581 10.609 15.1458C10.8677 15.672 10.7815 15.7597 10.4365 15.9351C10.0915 16.0228 9.91895 16.1105 9.6602 16.1105C9.57395 16.3736 9.57394 16.7243 9.57394 16.9874C9.8327 18.7413 9.6602 20.4953 10.0915 22.2492C10.1777 22.5123 10.1777 22.7753 10.0915 23.0384C9.91895 24.4416 9.8327 25.8447 9.91895 27.2478C9.91895 29.2648 9.8327 31.3695 9.57394 33.3865C9.40144 35.6666 8.88393 37.859 8.02141 39.9637C7.5039 41.4546 6.46888 42.6823 5.26136 43.647C4.8301 43.9977 4.22634 43.9977 3.70882 43.8223C3.45007 43.7346 3.27757 43.5593 3.01881 43.3839L0.948768 42.0684C0.345006 42.5946 0.345007 42.5946 0 43.5593C0.172504 43.7346 0.258755 43.8223 0.431259 43.9977C1.38003 44.6116 2.3288 45.1378 3.36382 45.5763C5.1751 46.3655 7.24515 45.927 8.62518 44.4362C9.6602 43.3839 10.4365 41.9807 10.7815 40.5776C10.7815 40.4899 10.954 40.2268 11.0402 40.2268C11.299 40.1391 11.4715 40.3145 11.3852 40.5776C11.3852 40.9284 11.5577 41.1915 11.8165 41.3669C12.2477 41.63 12.7653 41.893 13.2828 41.9807C13.714 42.0684 14.1453 42.5069 14.5765 42.6823C15.4391 42.9454 16.3016 43.2085 17.1641 43.3839C17.3366 43.3839 17.5954 43.3839 17.7679 43.3839C19.0616 43.2085 20.2692 42.9454 21.3904 42.4192C22.3392 41.8053 22.3392 41.7176 22.7705 40.5776ZM26.3068 29.5279C26.6518 29.6156 26.9105 29.8787 26.9105 30.2295L26.8243 30.3172C26.4793 30.3172 26.1343 30.0541 26.1343 29.7033C26.1343 29.7033 26.3068 29.6156 26.3068 29.5279ZM9.6602 10.4979L9.57394 10.4102C9.57394 10.4102 9.6602 10.1471 9.74645 10.0595L10.0052 10.3225L9.6602 10.4979ZM10.0915 6.02545C9.8327 6.02545 9.66019 6.02545 9.40144 5.93775C9.8327 5.93775 10.0052 5.85006 10.0915 5.85006C10.1777 5.85006 10.1777 5.85006 10.264 5.85006C10.3502 5.85006 10.0915 6.02545 10.0915 6.02545ZM10.0052 38.2098C9.6602 37.7713 9.48769 37.2452 9.6602 36.6313L10.4365 37.5082L10.0052 38.2098ZM21.4767 19.0044C21.3904 19.0921 21.3904 19.1798 21.3042 19.2675C20.9592 19.4429 20.7004 19.1798 20.5279 19.0044C20.4417 18.829 20.3554 18.6536 20.4417 18.4783C20.4417 18.3906 20.6142 18.2152 20.7867 18.2152C21.1317 18.2152 21.4767 18.566 21.4767 19.0044ZM13.2828 8.48093C13.5415 8.13015 13.8865 7.86706 14.3178 7.77936C17.4229 6.81471 19.2341 8.04245 20.0104 11.0241C20.5279 13.0411 20.6142 15.2335 20.0967 17.2505C19.9242 18.3029 19.5791 19.3552 19.1479 20.3199C18.7166 21.4599 17.7679 22.3369 16.5603 22.6877C15.9566 22.9507 15.2666 23.2138 14.749 23.6523C14.2315 23.9154 13.8865 24.2662 13.5415 24.7924C13.5415 24.5293 13.4553 24.2662 13.5415 24.0031C13.5415 23.74 13.5415 23.4769 13.6278 23.2138C13.8003 22.6877 13.2828 22.2492 13.4553 21.6353C13.5415 21.0214 13.6278 20.4953 13.6278 19.8814C13.6278 19.3552 13.6278 18.829 13.6278 18.3029C13.714 17.7767 13.714 17.2505 13.6278 16.7243C13.369 15.2335 13.714 13.655 13.369 12.1642C13.2828 11.638 13.2828 11.1118 13.369 10.5856C13.369 10.2348 13.369 9.97176 13.369 9.62097C13.369 9.27019 13.1103 8.83172 13.2828 8.48093ZM13.024 18.3906C13.1103 18.4783 13.1965 18.5659 13.1965 18.7413L12.8515 18.829C12.8515 18.7413 12.7653 18.566 12.7653 18.4783C12.7653 18.4783 12.9378 18.3906 13.024 18.3906ZM12.5928 15.3212L12.679 15.5843L12.5065 15.7597C12.5065 15.672 12.4203 15.5843 12.4203 15.4966C12.4203 15.4089 12.5065 15.4089 12.5928 15.3212ZM12.0752 2.69301C12.0752 2.69301 12.2477 2.7807 12.2477 2.8684C12.1615 2.95609 12.1615 3.13149 12.0752 3.21918L11.8165 3.04379C11.9027 2.8684 11.989 2.7807 12.0752 2.69301ZM11.1265 17.3382L11.2127 17.2505V17.4259L11.1265 17.3382ZM11.2127 13.3919C11.2127 13.0411 11.2127 12.6903 11.2127 12.3395C11.1265 12.2519 11.299 12.1642 11.3852 12.1642C11.4715 12.1642 11.5577 12.1642 11.5577 12.2518C11.644 12.5149 11.7302 12.8657 11.7302 13.2165C11.644 13.5673 11.8165 13.8304 12.1615 13.9181C12.1615 14.0058 12.1615 14.0935 12.1615 14.1812C12.0752 14.2689 11.989 14.3566 11.9027 14.2689C11.5577 14.0058 11.2127 13.7427 11.2127 13.3919ZM11.7302 22.6877L11.644 22.863L11.4715 22.7753L11.7302 22.6877C11.7302 22.6 11.8165 22.6 11.8165 22.6C11.8165 22.6 11.8165 22.6 11.8165 22.5123L11.7302 22.6877ZM19.2341 39.876C18.5441 40.4022 17.7679 40.753 16.9053 40.8407C16.5603 40.8407 16.3016 41.0161 16.1291 41.2792C15.8703 41.63 15.4391 41.63 15.0941 41.3669L15.6978 41.1038C15.6978 41.0161 15.6116 40.9284 15.5253 40.9284C14.2315 40.6653 13.024 40.1391 11.9027 39.4375C11.5577 39.2622 11.3852 38.9114 11.4715 38.4729C11.7302 37.5959 11.9027 36.719 12.1615 35.842C12.5928 34.2635 12.8515 32.685 13.024 31.1064C13.1103 29.791 13.369 28.5633 13.369 27.2478C13.4553 26.7217 13.5415 26.1955 13.6278 25.757C13.8865 25.8447 14.1453 25.9324 14.4903 26.0201C14.9216 26.1078 15.4391 26.0201 15.7841 25.6693C16.0428 25.4062 16.3878 25.2308 16.6466 24.9677C17.2504 24.4416 17.9404 24.0031 18.6304 23.6523C19.3204 23.3015 20.1829 23.2138 20.9592 23.4769C21.6492 23.6523 22.253 24.0908 22.5117 24.7924C22.7705 25.2308 22.943 25.757 23.1155 26.2832C23.288 27.6863 23.7192 29.0894 23.288 30.5803C23.2017 31.2818 23.1155 31.9834 23.1155 32.685C22.7705 34.1758 22.3392 35.5789 21.6492 36.8944C21.1317 38.0344 20.2692 39.0868 19.2341 39.876Z" fill="white"/>
<path d="M132.483 32.7726C131.189 33.3865 130.412 34.702 129.205 35.3158C128.86 34.8773 128.687 34.3512 128.687 33.825C128.515 32.4219 127.997 31.1064 127.135 30.0541C126.704 29.4402 126.1 28.914 125.41 28.6509C124.72 28.3879 124.03 27.9494 123.34 28.5632C123.254 28.5632 123.254 28.5632 123.167 28.5632C122.909 28.3002 122.65 28.3879 122.305 28.5632C122.046 28.7386 121.874 28.8263 121.615 28.8263C121.097 28.914 120.666 29.0894 120.407 29.5279C120.149 29.791 119.976 29.9664 119.717 30.2295C119.027 30.7556 118.682 31.6326 118.769 32.5096C118.423 32.6849 118.165 32.948 117.733 32.6849C118.078 31.3695 118.251 30.0541 118.251 28.7386C118.251 28.3878 118.424 28.0371 118.596 27.6863C119.027 26.897 119.545 26.1955 120.062 25.5816C121.615 23.4769 123.081 21.2845 124.461 19.0921C125.927 16.812 127.135 14.3565 128.17 11.8133C128.86 10.0594 129.205 8.21781 129.205 6.28851C129.119 5.06077 129.032 3.92072 127.997 3.13146C127.566 2.07911 126.617 1.90371 125.755 1.55293C125.237 1.28984 124.547 1.46524 124.202 1.90372L123.599 2.60528C123.426 2.42989 123.34 2.1668 123.167 2.1668C122.909 2.1668 122.65 2.2545 122.477 2.3422C122.132 2.69298 121.874 3.13146 121.529 3.56993C121.097 3.83302 120.752 4.2715 120.494 4.79768C119.545 6.4639 118.682 8.21781 118.078 10.0594C117.216 12.6026 116.526 15.1458 116.008 17.7767C115.75 19.0044 115.491 20.2321 115.232 21.5476C115.577 21.723 116.008 21.8984 116.353 22.1614C116.526 22.2491 116.44 22.6876 116.181 22.863C116.008 22.9507 115.922 22.9507 115.75 22.863C115.491 22.5999 115.318 22.3368 115.146 21.9861C114.973 22.5122 114.887 22.863 114.801 23.2138C114.715 23.5646 114.887 24.0031 114.715 24.3538C114.456 25.1431 114.283 25.9324 114.283 26.7216C114.111 27.1601 114.283 27.5986 114.715 27.774C114.887 27.8617 114.887 28.1248 114.801 28.2125L114.715 28.3002C114.197 28.6509 113.852 29.2648 113.852 29.8787C113.766 30.4926 113.68 31.0187 113.507 31.6326C113.076 31.7203 112.731 31.8957 112.3 31.9834C112.213 31.9834 111.955 31.808 111.955 31.808C111.955 31.1064 111.523 30.4925 111.955 29.791C112.213 29.2648 112.213 28.7386 112.041 28.2125C111.868 27.4232 111.61 26.6339 111.178 25.9324C110.23 23.8277 108.16 22.5999 106.003 22.5999C105.486 22.5999 104.968 22.5999 104.451 22.5999C103.933 22.5999 103.416 22.7753 102.898 22.863C102.726 22.4245 102.553 22.0738 102.294 21.723C102.122 21.3722 101.777 21.1968 101.432 21.1091C100.052 20.7583 98.4994 21.0214 97.3781 21.8984C95.8255 23.0384 94.7043 24.7046 94.1868 26.6339C94.1005 26.8093 94.1868 27.0724 94.0143 27.2478C93.583 28.1248 93.3242 29.0017 93.238 30.0541C93.238 30.3172 93.1517 30.5802 93.0655 30.8433C92.8067 31.9834 92.7205 33.2111 92.7205 34.3512C92.8067 35.1404 92.6342 35.842 92.2892 36.5436C91.9442 37.0697 91.6855 37.6836 91.4267 38.2975C91.2542 38.6483 90.9954 38.9113 90.8229 39.2621C90.3917 39.9637 89.4429 40.2268 88.7529 39.7883C88.4941 39.6129 88.3216 39.3498 88.1491 39.0867C87.8904 38.6483 87.7179 38.1221 87.4591 37.5959C86.5966 35.5789 85.9928 33.5619 85.3028 31.5449C85.0441 30.5802 84.6128 29.791 83.9228 29.0017L85.0441 27.2478V27.1601L84.9578 27.0724H85.0441L85.1303 27.1601C85.3891 26.897 85.6478 26.6339 85.9066 26.3708C87.9766 23.6523 89.9604 21.0214 91.9442 18.3028C92.1167 18.0397 92.203 17.7767 92.2892 17.6013L91.4267 17.1628C89.6154 19.5306 87.8041 21.8984 86.0791 24.2661C85.8203 24.6169 85.4753 24.88 85.6478 25.4062C85.3028 25.757 84.9578 26.0201 84.6128 26.3708C84.2678 26.7216 84.3541 27.0724 83.8365 27.1601C83.4915 26.6339 83.2328 26.1078 82.974 25.5816C82.8015 25.1431 82.7153 24.7923 82.5428 24.3538C82.3703 23.9154 82.1978 23.5646 82.0253 23.2138C81.8528 22.863 81.6802 22.4245 81.5077 21.9861C81.3352 21.5476 81.0765 21.1091 80.904 20.6706C80.7315 20.2321 80.559 19.7937 80.214 19.6183C79.7827 19.3552 79.869 18.9167 79.6102 18.6536C78.8339 17.3382 78.4889 17.2505 77.0227 17.7767L76.6777 17.952C76.5051 18.1274 76.8502 18.3905 76.4189 18.4782C76.2464 18.4782 76.0739 18.4782 75.9876 18.4782C75.7289 18.5659 75.4701 18.7413 75.5564 19.0921C75.6426 19.2675 75.5564 19.5306 75.3839 19.706C75.1251 19.969 74.9526 20.3198 74.8664 20.6706C74.4351 21.723 74.0038 22.863 73.6588 24.0031C73.0551 25.5816 72.6238 27.1601 72.0201 28.6509C71.4163 30.1418 71.0713 31.8957 70.295 33.2988C70.2088 33.4742 70.2088 33.6496 70.295 33.7373C70.3813 33.9127 70.7263 34.1758 70.7263 34.3512C70.7263 34.7896 70.2088 34.6143 69.95 34.7896C69.7775 34.8773 69.6913 34.965 69.605 35.1404C69.4325 35.4912 69.26 35.842 69.0875 36.1051C67.9662 38.4729 66.8449 40.753 65.4649 42.9454C64.9474 43.6469 64.4299 44.3485 63.7399 44.9624C63.5674 45.1377 63.2224 45.1377 63.0499 44.9624C62.9636 44.8747 62.9636 44.8747 62.9636 44.787C62.7049 44.1731 62.4461 43.6469 62.1011 42.9454C62.3599 42.2438 62.4461 41.4545 62.2736 40.6653C62.1011 40.0514 62.1874 39.3498 62.3599 38.736C62.5324 38.2975 62.5324 37.9467 62.5324 37.5082C62.5324 37.3328 62.2736 37.0697 62.2736 36.8943C62.2736 36.719 62.6186 36.5436 62.7049 36.2805C62.8774 35.9297 62.5324 35.6666 62.2736 35.4912C62.9636 35.2281 63.2224 34.5266 62.9636 33.825V33.7373C62.8774 33.5619 62.8774 33.4742 62.9636 33.2988C63.3086 31.8957 63.5674 30.4926 63.5674 29.0017C63.6536 27.6863 63.4811 26.2831 63.2224 24.9677C63.1361 23.9154 62.6186 22.863 61.8424 22.1614C61.4973 21.8107 61.1523 21.5476 60.5486 21.8107C60.4623 21.8984 60.2898 21.8107 60.1173 21.723C59.1685 21.2845 58.4785 21.9861 57.7023 22.2491C57.0985 23.1261 56.236 23.74 55.8047 24.7046C54.9422 26.6339 54.1659 28.6509 53.3897 30.6679C52.8722 32.0711 52.5272 33.5619 51.9234 34.8773C50.8884 37.3328 49.6809 39.7883 48.3871 42.1561C48.1283 42.77 47.6108 43.2084 47.007 43.5592C45.627 43.2084 44.937 42.0684 43.9882 41.1037C44.247 40.6653 44.5057 40.3145 44.6783 39.9637C45.627 38.4729 46.4033 36.8943 46.8345 35.1404C47.0933 34.3512 47.2658 33.4742 47.4383 32.5972C47.5246 32.2465 47.5246 31.808 47.5246 31.4572C47.6108 31.1064 47.6971 30.7556 47.6971 30.3172C47.6971 29.9664 47.3521 29.6156 47.4383 29.3525C47.6971 28.6509 47.007 28.4755 46.8345 27.9494C47.1796 27.4232 47.1796 26.8093 46.8345 26.2831C46.662 25.0554 45.972 24.1785 45.1095 23.4769C44.7645 23.0384 44.1607 22.7753 43.557 22.863C43.4707 22.863 43.3845 22.863 43.2982 22.7753C42.3495 21.8984 41.2282 22.0738 40.1069 22.1614C39.8481 22.1614 39.5894 22.3368 39.3306 22.3368C39.0719 22.3368 38.7269 22.4245 38.4681 22.4245C37.6056 20.4952 36.5706 19.9691 34.673 20.6706C34.1555 20.846 33.5518 21.1091 33.1205 21.3722C31.8267 22.3368 30.7917 23.5646 30.188 25.0554C29.4979 26.5462 29.0667 28.2125 28.8079 29.791C28.4629 31.6326 28.4629 33.4742 28.7217 35.3158L29.3254 35.5789L28.7217 36.2805C28.9804 37.2451 29.1529 38.1221 29.4979 39.0867C30.2742 40.8407 31.4817 42.4192 33.0343 43.5592C34.2418 44.3485 35.5356 44.8747 37.0018 45.0501C38.2956 44.9624 39.5031 44.5239 40.6244 43.91C41.4869 43.2961 42.3495 42.6823 43.2982 41.9807C43.4707 42.0684 43.557 42.2438 43.6432 42.4192C44.247 43.3838 45.0233 44.1731 45.8858 44.9624C46.4033 45.4885 47.2658 45.6639 47.9558 45.2254C48.6458 44.8747 49.1633 44.3485 49.5946 43.7346C49.5946 43.6469 49.5083 43.5592 49.4221 43.4715C49.3358 43.3838 49.1633 43.2961 49.0771 43.1207C48.8183 42.6823 48.8183 42.5069 49.5083 41.9807C49.7671 42.1561 49.5946 42.77 50.2846 42.5946C50.9746 41.1037 51.8371 39.6129 52.4409 38.0344C53.8209 34.7019 54.9422 31.2818 56.0635 27.8617C56.236 27.3355 56.4947 26.7216 56.6672 26.1955C56.8397 25.9324 57.0122 25.6693 57.271 25.4062C57.616 25.1431 58.1335 25.1431 58.3923 25.4939C58.3923 25.5816 58.4785 25.5816 58.4785 25.6693C58.996 26.6339 59.0823 27.774 58.9098 28.8263C58.4785 31.0187 58.1335 33.1234 57.5298 35.3158C57.1848 36.3682 57.0123 37.4205 57.0985 38.4729C57.0985 38.5606 57.1848 38.6483 57.0985 38.736C56.4085 39.4375 56.8397 40.4022 56.6672 41.1914C56.6672 41.3668 56.7535 41.6299 56.8397 41.7176C57.0985 41.893 57.0985 41.9807 56.8397 42.1561C56.7535 42.2438 56.6672 42.4192 56.6672 42.5946C56.7535 43.2084 56.8398 43.8223 57.0123 44.5239L58.306 44.787L57.271 45.2254C57.271 45.3131 57.271 45.4885 57.271 45.5762C57.616 46.3655 58.1335 47.0671 58.8235 47.5055C59.4273 48.0317 60.2898 48.1194 60.9798 47.8563C61.8424 47.6809 62.5324 47.2425 63.1361 46.6286C63.9986 46.2778 64.6887 45.6639 65.2062 44.9624C66.1549 43.7346 67.0175 42.4192 67.7075 41.016C68.225 39.876 68.8287 38.8237 69.3462 37.6836C69.6913 36.982 70.0363 36.1928 70.2088 35.4035C70.2088 35.1404 70.3813 34.8773 70.5538 34.702C70.7263 34.5266 70.8125 34.3512 70.8988 34.1758C71.7613 31.9834 72.5376 29.8787 73.3138 27.6863C74.0038 25.8447 74.6939 24.0031 75.4701 22.1614C75.5564 21.8984 75.5564 21.5476 75.4701 21.1968C75.4701 21.1091 75.5564 21.0214 75.6426 20.9337L76.7639 21.3722C76.6776 22.2491 76.6776 22.2491 76.7639 22.5122C77.1089 23.1261 77.3677 23.6523 77.7127 24.1785C77.9714 24.9677 78.3164 25.6693 78.7477 26.3708C79.179 27.0724 79.179 28.1248 80.0415 28.5632C80.1277 28.6509 80.1277 28.8263 80.1277 29.0017C80.1277 29.6156 80.559 30.1418 81.1627 30.3172C81.1627 30.3172 81.1627 30.4925 81.1627 30.5802L80.214 30.6679C79.3515 31.7203 78.5752 32.7726 77.7989 33.825C77.2814 34.4389 76.8502 35.1404 76.4189 35.7543C74.5214 38.2975 72.6238 40.8407 70.7263 43.3838C70.64 43.4715 70.7263 43.5592 70.64 43.7346C70.8988 44.0854 70.985 44.5239 71.5025 44.5239C71.5888 44.5239 71.5888 44.4362 71.6751 44.4362C74.0901 41.016 76.5914 37.5959 79.0065 34.0881C79.524 33.3865 80.3002 32.7726 80.3865 31.808C80.559 31.7203 80.7315 31.6326 80.904 31.7203C81.0765 31.8957 81.249 32.0711 81.3352 32.3342C82.4565 34.8773 83.664 37.4205 85.0441 39.7883C85.5616 40.5776 86.1653 41.3668 86.9416 41.9807C87.5454 42.5069 88.3216 42.5946 89.0116 42.2438C89.7017 41.9807 90.3054 41.5422 90.7367 40.9284C91.2542 40.1391 91.7717 39.4375 92.203 38.6483C92.2892 38.4729 92.4617 38.2975 92.548 38.1221C92.6342 38.0344 92.6342 37.6836 92.9792 37.7713C93.0655 38.1221 93.1517 38.4729 93.238 38.8237C93.4105 39.2621 93.583 39.6129 93.7555 39.9637C94.4455 41.1037 95.308 42.1561 96.2568 43.0331C97.2918 43.9977 98.4993 44.6116 99.8794 44.8747C100.742 45.0501 101.604 45.0501 102.381 44.787C104.278 44.1731 106.003 43.0331 107.383 41.4545C107.47 41.3668 107.383 41.2791 107.47 41.1914L107.211 41.016L106.78 40.8407L106.435 41.1914C104.709 42.6823 104.192 42.8577 101.949 42.77C101.604 42.77 101.346 42.6823 101.001 42.5946C99.1894 41.893 97.8093 40.4022 97.2056 38.4729C96.9468 37.6836 96.7743 36.8066 96.7743 35.9297C96.688 34.7896 96.7743 33.5619 97.1193 32.4219C97.1193 32.2465 97.1193 31.9834 97.1193 31.808V31.7203C97.0331 31.7203 97.0331 31.6326 96.9468 31.5449V31.4572C96.9468 31.4572 96.9468 31.3695 97.0331 31.3695C97.1193 31.4572 97.1193 31.4572 97.1193 31.5449C97.1193 31.6326 97.1193 31.6326 97.1193 31.7203C97.1193 31.7203 97.1193 31.7203 97.2056 31.808C97.6368 31.3695 97.6368 30.6679 97.9818 30.1418C98.3268 29.5279 98.5856 28.914 98.9306 28.3002C99.4481 27.3355 99.4481 27.3355 100.569 26.7216C100.828 27.0724 101.173 27.5109 101.432 27.8617C102.812 29.6156 104.623 31.0187 106.693 31.8957C107.211 32.0711 107.642 32.2465 108.16 32.4219C108.332 32.4219 108.591 32.3342 108.591 32.0711C108.763 31.4572 108.505 31.0187 107.815 31.0187C107.297 31.0187 107.125 30.5802 106.693 30.4925C106.262 30.4049 105.831 30.2295 105.399 30.0541C105.313 30.0541 105.227 29.9664 105.227 29.8787C104.968 29.2648 104.451 29.0017 104.019 28.6509C103.243 27.8617 102.639 27.0724 102.122 26.1078C101.949 25.8447 102.036 25.4939 102.294 25.2308C103.674 23.6523 106.003 23.3015 107.815 24.3538C109.367 25.5816 110.488 26.9847 110.488 29.0894V31.1941C110.057 31.7203 109.798 32.1588 109.453 32.5096L110.316 33.4742C110.143 33.9127 109.798 34.1758 109.798 34.5266C109.712 35.1404 109.626 35.7543 109.281 36.3682C109.108 37.0697 108.85 37.7713 108.591 38.4729C108.16 39.1744 107.728 39.7883 107.211 40.4022C108.246 40.6653 108.246 40.6653 108.591 40.1391C108.763 39.9637 108.85 39.7006 109.022 39.4375C109.367 38.736 109.712 38.0344 109.971 37.3328V37.2451C109.885 37.2451 109.798 37.2451 109.798 37.2451C109.712 37.2451 109.712 37.1574 109.626 37.0697C109.54 36.982 109.798 36.982 109.885 37.0697C109.885 37.0697 109.971 37.1574 109.971 37.2451H110.057C110.316 37.1574 110.488 36.982 110.488 36.719C110.747 35.842 111.006 34.8773 111.265 33.825C110.833 33.7373 110.575 33.3865 110.488 33.0357C110.402 32.6849 110.575 32.3342 110.92 32.4219C111.523 32.5972 112.041 32.6849 112.645 32.6849C113.248 32.6849 113.507 33.0357 113.68 33.4742C113.421 33.6496 112.99 33.7373 112.99 34.1758C112.99 34.7019 112.903 35.0527 113.162 35.4035C113.248 35.4912 113.421 35.5789 113.593 35.5789C113.766 35.5789 113.852 35.4912 114.025 35.4912C114.197 35.842 114.111 36.2805 113.766 36.5436C113.593 36.6313 113.248 36.2805 113.162 36.719C113.076 36.982 112.99 37.2451 112.99 37.5082C113.162 38.2098 112.903 38.9114 113.248 39.5252C113.335 39.7883 113.593 39.9637 113.852 39.9637C114.025 39.9637 114.197 40.0514 114.456 40.0514L113.507 41.4545L114.197 42.77C114.628 42.77 115.06 42.8577 115.491 42.8577C116.526 42.9454 117.388 42.1561 117.388 41.1037C117.388 40.4899 117.82 39.876 117.475 39.2621C117.733 38.3852 117.82 37.5082 117.82 36.5436C117.82 36.3682 117.82 36.1928 117.906 36.1051L119.114 32.948C119.459 32.0711 120.062 31.2818 120.752 30.5802C121.615 29.6156 123.081 29.6156 124.03 30.4925C124.116 30.5802 124.202 30.7556 124.375 30.8433C124.892 31.5449 125.324 32.4219 125.496 33.2988C125.841 34.7019 125.927 36.1928 125.755 37.5959C125.41 37.859 125.151 38.0344 124.806 38.2098C124.547 38.3852 124.375 38.6483 124.202 38.9113L124.289 38.999H124.116C122.305 40.0514 120.925 41.8053 120.235 43.8223C119.976 44.6116 119.976 45.4885 120.407 46.1901C120.494 46.3655 120.666 46.5409 120.839 46.6286C121.529 46.9794 122.219 47.0671 122.995 46.8917C124.202 46.5409 125.237 45.8393 126.014 44.8747C127.135 43.5592 127.997 41.9807 128.429 40.2268C128.601 39.4375 128.86 38.6483 129.032 37.859C129.119 37.2451 129.464 36.7189 129.895 36.3682C130.067 36.1928 130.326 36.0174 130.499 35.842L133 33.5619L132.483 32.7726ZM118.424 26.0201C118.337 25.9324 118.337 25.757 118.251 25.6693C118.251 25.5816 118.337 25.4939 118.424 25.4062L118.596 25.6693L118.424 26.0201ZM121.356 3.30685C121.96 3.21915 122.477 3.39454 122.822 3.83302C121.96 4.09611 121.874 4.09611 121.356 3.30685ZM118.941 22.9507C119.027 22.5122 119.114 22.3368 119.2 21.9861C119.372 21.4599 119.459 20.9337 119.459 20.4075C119.372 19.7937 119.372 19.2675 119.2 18.7413C119.2 18.4782 119.2 18.2151 119.2 17.952L119.717 18.5659C119.89 18.3905 119.976 18.2151 120.062 18.0397C120.494 16.1104 120.925 14.0934 121.442 12.0764C121.96 10.1471 122.65 8.39321 123.167 6.55159C123.34 6.02542 123.857 5.67463 123.426 5.06076C124.03 4.88537 123.599 4.09611 124.289 3.92072C124.634 3.74533 124.979 3.48224 125.324 3.21915C125.669 2.95607 126.186 3.04376 126.445 3.39454C127.307 4.2715 127.739 5.49924 127.566 6.81468C127.394 8.21781 127.135 9.70865 126.531 11.0241C125.582 13.3919 124.461 15.7597 123.081 17.952C122.219 19.5306 121.27 20.9337 120.321 22.4245C119.89 23.1261 119.372 23.8277 118.769 24.4415C118.855 23.74 118.855 23.3015 118.941 22.9507ZM118.769 21.3722C118.769 21.5476 118.682 21.6353 118.51 21.6353C118.424 21.6353 118.423 21.6353 118.337 21.5476C118.251 21.4599 118.251 21.3722 118.251 21.2845C118.337 21.1968 118.424 21.1091 118.596 21.0214C118.682 21.1968 118.769 21.2845 118.769 21.3722ZM118.337 16.6366C118.51 16.7243 118.51 16.812 118.424 16.812C118.337 16.8997 118.251 16.9874 118.165 17.0751C118.078 16.9874 117.992 16.8997 117.906 16.8997C117.906 16.8997 118.165 16.5489 118.337 16.6366ZM62.9636 28.6509V28.7386L62.8774 28.6509H62.9636ZM36.7431 23.5646C36.8293 23.6523 36.8293 23.6523 36.8293 23.74L36.7431 23.8277C36.7431 23.74 36.7431 23.6523 36.7431 23.5646ZM35.7943 25.4062C35.8806 25.4939 35.9668 25.4939 35.9668 25.5816C35.9668 25.5816 35.8806 25.757 35.7943 25.8447C35.7081 25.9324 35.7081 25.757 35.7081 25.757C35.7081 25.5816 35.7081 25.4939 35.7943 25.4062ZM35.1906 21.5476C35.1906 21.5476 35.1906 21.6353 35.1906 21.5476C35.1043 21.6353 35.1043 21.6353 35.1043 21.6353L35.0181 21.723H35.1043L35.1906 21.5476ZM35.0181 21.8107C35.0181 21.8107 35.0181 21.723 35.0181 21.8107C35.1043 22.0737 35.1906 22.3368 35.3631 22.5999C35.4493 22.863 35.7943 23.0384 35.4493 23.3015C35.3631 23.3892 35.1043 23.2138 34.9318 23.1261C34.2418 22.5999 34.2418 22.4245 35.0181 21.8107ZM31.6542 30.931V31.0187V30.931ZM29.4979 34.8773C29.3254 34.7896 29.1529 34.7019 29.0667 34.5266C29.3254 34.2635 29.5842 34.4389 29.6704 34.6143C29.6704 34.7019 29.7567 34.7896 29.7567 34.8773C29.6704 34.8773 29.4979 34.965 29.4979 34.8773ZM29.6704 32.5096C29.4117 32.7726 29.2392 32.6849 29.1529 32.5096C29.1529 32.3342 29.1529 32.2465 29.1529 32.0711C29.1529 32.0711 29.2392 31.9834 29.2392 31.8957C29.2392 31.808 29.3254 31.6326 29.4117 31.5449C29.9292 32.1588 29.9292 32.2465 29.6704 32.5096ZM30.9642 33.2988C30.7055 33.4742 30.4467 33.4742 29.9292 33.2111L30.6192 32.6849C30.878 32.5096 31.1367 32.5972 31.1367 32.7726C31.1367 32.948 31.1367 33.1234 30.9642 33.2988ZM31.9992 34.6143C31.8267 34.7896 31.6542 34.7896 31.4817 34.6143C31.3955 34.6143 31.3955 34.6143 31.3092 34.5266L31.3955 34.4389C31.568 34.4389 31.7405 34.4389 31.913 34.5266V34.6143H31.9992ZM31.8267 31.9834C31.7405 31.8957 31.6542 31.808 31.568 31.7203C31.4817 31.6326 31.6542 31.6326 31.6542 31.5449L31.9992 31.808L31.8267 31.9834ZM32.3442 33.4742C32.258 33.2111 32.1717 33.0357 32.1717 32.948C32.1717 32.8603 32.4305 32.7726 32.603 32.7726C32.7755 32.7726 32.7755 32.948 32.7755 32.948C32.603 33.1234 32.5168 33.2988 32.3442 33.4742ZM42.522 41.1037C41.2282 42.6823 39.0719 43.2084 37.1744 42.4192C36.7431 42.2438 36.3118 41.9807 35.9668 41.7176C34.2418 40.5776 33.2068 38.736 33.0343 36.6313C33.0343 36.1928 32.8618 35.7543 32.8618 35.3158C32.8618 35.0527 32.8618 34.7896 32.8618 34.5266C32.948 33.9127 33.0343 33.3865 33.2068 32.7726C33.7243 30.1418 34.9318 27.6863 36.8293 25.8447C37.2606 25.4062 37.7781 25.1431 37.8644 24.5292C37.8644 24.3538 38.0369 24.3538 38.2094 24.4415C38.3819 24.5292 38.6406 24.5292 38.8131 24.3538C39.2444 24.0031 39.5894 23.5646 40.0207 23.2138C40.1932 23.3892 40.3657 23.4769 40.6244 23.5646C41.0557 23.6523 41.5732 23.6523 42.0044 23.6523C42.9532 23.6523 43.8157 24.0031 44.4195 24.6169C45.5408 25.6693 46.2308 26.9847 46.4033 28.5632C46.5758 29.4402 46.4895 30.4049 46.317 31.2818C46.0583 32.7726 45.7995 34.2635 45.3683 35.6666C44.937 37.6836 43.9882 39.6129 42.522 41.1037ZM61.3248 23.5646C61.3248 23.6523 61.3248 23.74 61.3248 23.8277C61.2386 23.74 61.2386 23.74 61.1523 23.6523C61.1523 23.5646 61.1523 23.4769 61.1523 23.4769C61.1523 23.4769 61.0661 23.4769 61.0661 23.3892H61.1523V23.4769C61.2386 23.4769 61.3248 23.4769 61.3248 23.5646ZM61.0661 23.2138L61.1523 23.3015L61.0661 23.2138ZM60.3761 31.8957V31.9834V31.8957ZM59.5998 32.948C59.6861 32.948 59.6861 32.948 59.5998 32.948C59.6861 32.7726 59.7723 32.7726 59.8586 32.7726C60.1173 32.8603 60.2036 33.1234 60.1173 33.3865C60.1173 33.4742 59.9448 33.4742 59.9448 33.5619C59.6861 33.5619 59.5998 33.2988 59.5998 32.948ZM60.0311 36.2805C60.0311 36.3682 60.0311 36.4559 60.0311 36.5436C59.9448 36.6313 59.8586 36.6313 59.7723 36.6313C59.5136 36.5436 59.341 36.3682 58.996 36.1051C59.341 35.9297 59.7723 36.0174 60.0311 36.2805ZM58.306 34.5266C58.3923 34.5266 58.4785 34.702 58.5648 34.7896C58.4785 34.8773 58.306 34.965 58.2198 34.965C58.1335 34.965 58.0473 34.8773 57.8748 34.702C58.0473 34.6143 58.2198 34.4389 58.306 34.5266ZM58.1335 44.2608C58.0473 44.3485 57.961 44.3485 57.8748 44.3485C57.616 44.1731 57.5298 43.91 57.7023 43.6469L57.7885 43.5592C57.8748 43.6469 57.961 43.6469 58.0473 43.7346C58.2198 43.91 58.3923 44.0854 58.1335 44.2608ZM58.306 40.9284C58.306 40.8407 58.306 40.753 58.3923 40.6653C58.4785 40.753 58.5648 40.753 58.5648 40.8407C58.5648 40.9284 58.4785 41.016 58.3923 41.016C58.3923 41.1037 58.306 40.9284 58.306 40.9284ZM58.4785 41.6299L58.651 41.5422C58.7373 41.6299 58.8235 41.7176 58.8235 41.893L58.7373 41.9807L58.4785 41.6299ZM58.8235 42.5946C58.7373 42.5946 58.9098 42.5069 58.9098 42.5069C58.9098 42.5069 59.1685 42.5069 59.5998 42.5946C59.4273 42.6823 59.1685 42.6823 58.996 42.77C58.9098 42.77 58.9098 42.6823 58.8235 42.5946ZM59.341 46.5409L58.996 46.2778C59.0823 46.1901 59.1685 46.1024 59.1685 46.1024C59.2548 46.1901 59.4273 46.1901 59.5135 46.2778C59.5135 46.2778 59.4273 46.4532 59.341 46.5409ZM60.1173 46.2778L59.9448 46.1901L60.0311 46.1024H60.1173V46.2778ZM60.2036 43.8223L60.1173 44.8747L59.5998 43.9977L60.2036 43.8223L60.2898 43.7346L60.2036 43.8223ZM60.3761 38.8237C60.2898 38.736 60.2898 38.6483 60.2036 38.5606C60.2036 38.3852 60.3761 38.2098 60.5486 38.2098C60.5486 38.2098 60.5486 38.2098 60.6348 38.2098L60.8073 38.3852L60.3761 38.8237ZM60.8936 37.2451C60.8073 37.2451 60.7211 37.1574 60.6348 37.1574L60.8073 36.982L61.0661 37.0697C60.9798 37.1574 60.8936 37.2451 60.8936 37.2451ZM60.8073 36.0174C60.7211 36.0174 60.6348 35.842 60.6348 35.7543C60.8073 35.7543 60.8936 35.6666 61.0661 35.6666C61.1523 35.6666 61.1523 35.842 61.2386 35.9297C61.0661 36.0174 60.8936 36.0174 60.8073 36.0174ZM61.7561 34.2635C61.4111 34.702 61.2386 34.5266 60.8936 34.2635C61.0661 34.0004 61.1523 33.6496 61.3248 33.3865C61.3248 33.2988 61.4973 33.2988 61.5836 33.2988C61.7561 33.5619 62.1011 33.825 61.7561 34.2635ZM69.7775 35.9297C69.7775 35.9297 69.6913 35.9297 69.605 35.9297V35.842H69.6913C69.7775 35.842 69.95 35.9297 69.7775 35.9297ZM77.4539 19.8814C77.3677 19.9691 77.1952 19.9691 77.0227 19.9691C76.9364 19.9691 76.8502 19.7937 76.8502 19.706C76.8502 19.5306 76.9364 19.4429 77.1089 19.3552C77.2814 19.2675 77.3677 19.1798 77.5402 19.1798C77.7989 19.5306 77.7127 19.706 77.4539 19.8814ZM78.1439 19.0044L78.0577 18.9167L78.1439 18.829L78.2302 18.9167C78.2302 19.0044 78.2302 19.0044 78.1439 19.0044ZM81.594 29.1771C81.6803 29.0894 81.7665 29.0017 81.8528 29.0017C81.939 29.0017 82.0253 29.1771 82.1115 29.2648L81.6802 29.5279C81.7665 29.3525 81.594 29.2648 81.594 29.1771ZM82.284 31.0187C82.284 31.1064 82.284 31.0187 82.284 31.0187L82.1978 31.1064L82.1115 31.1941V31.3695V31.4572C82.1115 31.4572 82.0253 31.3695 82.0253 31.2818L82.1115 31.1941V31.0187H82.1978V30.931C82.1978 31.1064 82.1978 31.1064 82.284 31.0187L82.3703 30.931C82.3703 30.931 82.3703 31.0187 82.284 31.0187ZM82.974 31.6326C82.974 31.5449 82.8878 31.4572 82.8878 31.3695L82.974 31.2818C82.974 31.3695 83.0603 31.4572 83.0603 31.5449L82.974 31.6326ZM86.9416 40.8407C86.8554 40.753 86.7691 40.6653 86.6828 40.5776C86.6828 40.5776 86.6829 40.5776 86.5966 40.5776L86.4241 40.4899L86.5966 40.3145L86.6828 40.4899C86.8554 40.4899 86.9416 40.4899 87.1141 40.5776L87.2004 40.6653C87.2004 40.753 86.9416 40.8407 86.9416 40.8407ZM88.1491 42.0684C88.0629 42.1561 87.7179 41.893 87.8041 41.7176C87.8904 41.6299 87.9766 41.5422 88.1491 41.4545C88.2354 41.4545 88.3216 41.5422 88.4941 41.7176C88.3216 41.8053 88.2354 41.9807 88.1491 42.0684ZM94.273 28.4755C94.5318 28.2125 94.7905 27.9494 94.963 27.774C95.0493 27.774 95.0493 27.8617 95.1355 27.8617C95.308 28.3002 95.0493 28.4755 94.273 28.4755ZM95.308 32.0711C95.1355 32.1588 95.2218 32.0711 95.1355 32.0711C95.0493 32.0711 95.1355 31.8957 95.1355 31.8957C95.2218 31.8957 95.2218 31.808 95.308 31.8957C95.308 31.9834 95.4805 31.9834 95.308 32.0711ZM97.1193 28.914C97.0331 28.914 96.8606 28.8263 96.7743 28.7386C96.688 28.5632 96.6881 28.3878 96.8606 28.3002C96.8606 28.3002 96.9468 28.3002 96.9468 28.2125C97.1193 28.2125 97.2918 28.2125 97.5506 28.3002C97.5506 28.3002 97.5506 28.3878 97.6368 28.4755C97.4643 28.6509 97.2918 28.8263 97.1193 28.914ZM97.9818 24.1785C97.8956 24.1785 97.8093 24.1785 97.7231 24.1785C97.5506 24.1785 97.5506 24.0908 97.7231 24.0031C97.8093 24.0908 97.8956 24.0908 97.9818 24.1785ZM99.5344 23.8277L99.4481 23.74C99.4481 23.6523 99.4481 23.5646 99.5344 23.4769H99.6206L99.5344 23.8277ZM101.173 26.2831C101.001 26.1078 100.914 25.9324 100.828 25.6693C100.828 25.5816 101.001 25.4939 101.173 25.4062C101.259 25.4939 101.259 25.5816 101.259 25.6693C101.259 25.8447 101.259 26.1078 101.173 26.2831ZM116.871 25.0554C116.957 25.0554 117.043 25.1431 117.13 25.1431C117.043 25.1431 117.043 25.2308 116.957 25.2308C116.871 25.2308 116.871 25.1431 116.785 25.0554C116.698 24.9677 116.871 25.0554 116.871 25.0554ZM116.612 29.1771L116.785 30.0541C116.181 30.1418 116.008 30.0541 116.008 29.6156C115.922 29.2648 116.008 29.2648 116.612 29.1771ZM116.871 28.8263H116.957L117.043 28.7386C117.043 28.7386 117.043 28.8263 116.957 28.8263H116.871L116.612 29.2648L116.871 28.8263ZM116.698 33.6496C116.612 33.6496 116.526 33.5619 116.44 33.5619C116.526 33.5619 116.612 33.4742 116.698 33.4742C116.785 33.4742 116.785 33.5619 116.785 33.5619C116.871 33.5619 116.785 33.6496 116.698 33.6496ZM115.836 28.6509V28.7386V28.6509ZM115.232 23.4769L115.146 23.5646V23.4769H115.232ZM115.146 31.5449L115.318 31.4572C115.405 31.5449 115.577 31.6326 115.577 31.7203C115.577 31.8957 115.577 31.9834 115.491 32.1588C115.318 32.0711 115.146 31.9834 115.06 31.8957C114.973 31.808 114.973 31.6326 115.06 31.5449C115.06 31.5449 115.06 31.5449 115.146 31.5449ZM114.887 30.2295L114.973 30.3172L114.887 30.2295ZM115.318 34.3512L115.405 34.2635L115.318 34.3512V35.2281L114.542 34.8773C114.542 34.2635 114.973 34.3512 115.318 34.3512ZM114.197 31.1064L114.111 31.0187C114.111 31.0187 114.283 30.931 114.37 30.931C114.456 30.931 114.456 31.0187 114.456 31.0187C114.37 31.0187 114.283 31.0187 114.197 31.1064ZM114.887 38.5606C114.715 38.5606 114.542 38.5606 114.37 38.5606C114.197 38.5606 114.283 38.4729 114.197 38.3852C114.111 38.2975 114.283 38.2975 114.283 38.2975C114.456 38.2975 114.628 38.3852 114.887 38.3852V38.5606ZM116.008 38.8237C116.008 38.8237 116.095 38.6483 116.181 38.6483C116.267 38.5606 116.267 38.6483 116.353 38.6483C116.44 38.6483 116.44 38.736 116.44 38.736C116.698 39.0867 116.612 39.4375 116.698 39.7883C116.267 39.5252 116.181 39.1744 116.008 38.8237ZM117.13 36.719C116.698 36.8066 116.612 36.3682 116.267 36.2805C116.181 36.5436 116.008 36.8066 115.922 37.0697C115.836 37.1574 115.75 37.1574 115.663 37.1574C115.577 37.1574 115.491 37.0697 115.491 36.982C115.405 36.719 115.405 36.5436 115.405 36.2805H115.318L115.232 36.1928L115.318 36.2805H115.405H116.267C116.353 36.1051 116.526 35.9297 116.785 36.0174H116.871C117.216 36.1051 117.13 36.4559 117.13 36.719ZM117.043 27.4232C116.785 27.3355 116.612 27.2478 116.353 27.1601C116.353 27.1601 116.353 26.9847 116.353 26.897C116.353 26.8093 116.44 26.8093 116.44 26.8093C116.698 26.897 116.871 27.0724 117.13 27.1601C117.13 27.1601 117.13 27.2478 117.13 27.3355C117.216 27.2478 117.13 27.4232 117.043 27.4232ZM117.647 33.3865C117.647 33.3865 117.475 33.2988 117.388 33.2988C117.475 33.2988 117.561 33.2111 117.647 33.2111L117.733 33.2988L117.647 33.3865ZM125.841 39.1744V39.2621C125.841 39.2621 125.841 39.2621 125.755 39.2621C125.755 39.5252 125.755 39.876 125.755 40.1391C125.065 41.9807 123.944 43.5592 122.391 44.6993C122.219 44.787 122.046 44.9624 121.874 45.0501C121.615 45.1377 121.356 44.8747 121.356 44.6116C121.356 44.4362 121.442 44.3485 121.529 44.1731C121.529 44.0854 121.442 43.8223 121.184 43.5592C121.615 43.5592 122.046 43.3838 121.96 42.9454C121.874 42.2438 122.132 41.5422 122.65 41.1037C122.995 40.9283 123.34 41.2791 123.685 40.9284C124.289 40.3145 125.065 39.7883 125.755 39.2621C125.755 39.2621 125.755 39.2621 125.755 39.1744H125.841C125.841 39.0867 125.841 39.0867 125.927 38.999C125.927 38.9113 125.927 38.9113 125.927 38.8237C125.927 38.9113 126.014 38.999 126.014 38.999C125.927 39.0867 125.927 39.0867 125.841 39.1744Z" fill="white"/>
</svg>
